<?xml version='1.0' encoding='utf-8'?>
<svg xmlns="http://www.w3.org/2000/svg" version="1.1" viewBox="0 0 1080 2132"> <g fill="#4eada7"> <path d="m82.999 599.48c-0.13778 0-0.26992 0.05474-0.36735 0.15215-0.097425 0.09741-0.15216 0.22962-0.15216 0.36735l1e-3 901c0 0.2869 0.23259 0.5195 0.51951 0.5195l901 1e-3c0.13773 0 0.26994-0.0548 0.36735-0.1522s0.15215-0.2295 0.15215-0.3673l-9.7e-4 -901c0-0.2869-0.23263-0.51953-0.51953-0.51953l-901-9.7e-4z"/> </g> <g> <g fill="#2a4a59"> <path d="m743.12 1121.8 46.454-1.2353q-0.1573-5.9016-0.3147-11.803-23.227 0.6203-46.453 1.2404 0.15724 5.899 0.31434 11.798"/> </g> <g fill="#00aec7"> <path d="m748.69 879.68 0.0061 0.00219q0.0421 9.5e-4 0.0747 0.0376 0.0095 0.00415 0.0486 0.06885 0.015 0.0283 0.0289 0.0637 0.0283 0.07106 0.04725 0.1609 0.02075 0.09327 0.02868 0.219 0.00537 0.1438-0.00343 0.2217-0.0079 0.0903-0.0272 0.16233-0.01575 0.06812-0.0557 0.13477-0.0362 0.05444-0.083 0.0569-0.08274 0.0066-0.1582-0.1724-0.01414-0.03587-0.02635-0.0771-0.02745-0.105-0.02978-0.12967-0.01577-0.09203-0.02063-0.19653-0.0044-0.1084 0.00426-0.19824 0.00404-0.04516 0.01075-0.08569 0.01941-0.0979 0.02661-0.11157 0.05164-0.15455 0.12844-0.15674z"/> </g> <g fill="#fff"> <path d="m734.48 872.16 1.2e-4 0.00146-1.2e-4 0.00147v-0.00293z"/> </g> <g fill="#7d8b96"> <path d="m746.07 890.84 2.0168-0.116 2.0165-0.1162q0.6649 11.419 1.3298 22.838-2.0166 0.1189-4.0332 0.2373-0.665-11.421-1.3299-22.843"/> <path d="m748.69 879.68 0.0061 0.00219q0.0421 9.5e-4 0.0747 0.0376 0.0095 0.00415 0.0486 0.06885 0.015 0.0283 0.0289 0.0637 0.0283 0.07106 0.04725 0.1609 0.02075 0.09327 0.02868 0.219 0.00537 0.1438-0.00343 0.2217-0.0079 0.0903-0.0272 0.16233-0.01575 0.06812-0.0557 0.13477-0.0362 0.05444-0.083 0.0569-0.08274 0.0066-0.1582-0.1724-0.01414-0.03587-0.02635-0.0771-0.02745-0.105-0.02978-0.12967-0.01577-0.09203-0.02063-0.19653-0.0044-0.1084 0.00426-0.19824 0.00404-0.04516 0.01075-0.08569 0.01941-0.0979 0.02661-0.11157 0.05164-0.15455 0.12844-0.15674z"/> </g> <g fill="#2a4a59"> <path d="m747 874.11-0.8159 0.0984q-1.5971 0.2537-2.9173 0.9678-0.66014 0.3567-1.251 0.8276-0.34536 0.17214-1.604 1.658-0.46096 0.614-0.79946 1.2832-0.7397 1.7226-0.74143 2.133-0.32347 1.5281-0.10877 3.1848 0.51404 3.3162 3.175 5.5564 0.25135 0.30935 1.899 1.1756 0.6819 0.3069 1.4293 0.5007 1.4118 0.4446 3.4157 0.2095 3.2461-0.3472 5.7065-3.1819 0.95387-1.1682 1.4545-2.5974 0.5218-1.2417 0.50755-3.4946-0.13955-1.666-0.7378-3.0554-0.29919-0.69435-0.71325-1.3203-0.13513-0.35593-1.5005-1.7209-0.5863-0.5215-1.2279-0.9219-1.6525-0.8916-2.0497-0.9243-1.4493-0.4331-3.1207-0.3782z"/> </g> <g fill-opacity=".28235"> <path d="m869.95 1339.1-3.1827 1.4927q-22.629 4.5107-132.42 7.2151-110.55 2.7024-260.37 2.1914-142.98-0.7139-228.7-4.178-27.467-1.1191-45.248-2.4397l-14.945-1.3576q-12.316-1.401-12.454-2.9241 3.7387-4.6743 102.12-7.7779 98.381-3.104 246.54-3.2216 148.16 0.1179 246.54 3.2216 98.382 3.1043 102.12 7.7781z"/> </g> <g fill="#d9f1e4"> <path d="m666.58 954.24-8.9148 12.191 3.7626 20.849-5.8794 6.644-27.902-7.5481-4.0422 12.542 20.484 5.5952 29.378 5.9795-6.8856-56.252"/> </g> <g fill="#2a4a59"> <path d="m736.83 955.83 21.362-5.1428q1.4934 6.2009 2.9871 12.402-10.68 2.574-21.36 5.1477-1.4942-6.2034-2.9885-12.407"/> <path d="m742.74 966.25 13.208-3.1787q0.33313 1.383 0.66626 2.7663-6.6033 1.5918-13.207 3.1836l-0.66735-2.7712"/> <path d="m739.72 969.83 10.53-2.5349 10.53-2.5349q1.3666 5.674 2.7331 11.348-10.529 2.5371-21.059 5.0747l-2.7344-11.353"/> </g> <g fill-opacity=".99608"> <path d="m784.36 966.7-9.5e-4 0.0022 6e-4 -0.00147 3.5e-4 -7.3e-4z"/> <path d="m702.66 1027v5e-4 7e-4 -0.0012z"/> </g> <g fill="#7d8b96" fill-opacity=".99608"> <path d="m783.27 1058.6 1.5e-4 0.0012 1.5e-4 3e-4 -3e-4 -0.0015z"/> </g> <g fill="#d9f1e4"> <path d="m778.61 1099.6v0.0025 0.0024 0.0025l3.098-10.048c-30.773-37.692-30.651-32.218-3.4348-2.6362 14.352 15.6 21.108-2.9685 20.993-3.6541-0.3282-1.9536-1.1485-5.8315-2.0056-11.72-1.1014-7.5691-1.5868-22.067-2.3292-43.462-0.24135-6.9536-1.0242-10.953-1.1898-12.112-0.52417-3.6655-1.7368-8.1084-3.6505-13.416-0.45596-1.2649-1.9647-4.4182-5.131-9.1909-3.1346-4.7244-8.5498-10.213-16.007-16.625l-4.7573-10.202-30.645 11.381 1.5162 9.1833c-9.9139 19.013-14.947 33.184-15.982 42.429-1.1359 10.15 4.1381 50.516 4.838 61.239l34.583-6.2469 11.675 6.6402 8.4289 8.4328v0.0025z"/> </g> <g fill-opacity=".99608"> <path d="m704.78 1045v7e-4 8e-4 -0.0015z"/> </g> <g fill="#d9f1e4"> <path d="m735.2 986.24v4.9e-4l2.1008 6.3276q-3.4935 2.0774-6.9868 4.1545l4.886-10.483z"/> <path d="m733.02 994.21v7.4e-4l-0.98754 3.3935-3.7659 2.7075q1.4216-2.646 2.843-5.2915l1.9104-0.8103z"/> <path d="m714.38 905.26 63.054-3.6689q1.6739 28.746 3.3474 57.491-31.527 1.8369-63.053 3.6741-1.6737-28.748-3.3478-57.496"/> </g> <g fill="#2a4a59"> <path d="m761.13 928.5-0.0133 1.4775q-0.4453 4.489-3.7056 7.3552-3.2842 2.8647-7.9745 2.6323-4.489-0.44484-7.3551-3.7053-0.9187-1.0545-1.5477-2.324l-0.54284-1.3118q-0.46363-1.3594-0.55556-2.8608-0.15196-4.6165 2.7305-7.8552 2.8827-3.239 7.4851-3.6236 4.6164-0.1521 7.8552 2.7305 3.2392 2.8823 3.6238 7.4851"/> <path d="m715.15 947.71 6.4663-0.34667 6.4666-0.34596q0.20568 3.8213 0.41123 7.6419-6.4659 0.34935-12.932 0.6987-0.2063-3.824-0.41224-7.6479"/> <path d="m745.89 1098.6 39.719 0.0024q0 12.168 0 24.336-19.86 0.0012-39.719 0.0024 0-12.17 0-24.34"/> </g> <g fill="#535d66"> <path d="m755.64 1085.2c27.724 2.6987 33.564 4.2117 39.315 5.72 1.1287 0.2959 2.1409 1.1347 2.7605 2.4602z"/> </g> <g fill="#d9f1e4"> <path d="m719.94 1079.2 81.394-4.5923q0.79335 14.054 1.5866 28.108-40.697 2.2986-81.394 4.5972-0.79356-14.057-1.587-28.113"/> </g> <g> <path d="m282.05 1101.2-1.1816 8.0676q-4.081 24.762-3.3358 44.503 2.0677 20.518 10.912 25.382 11.532 12.647 80.814-4.522l15.189 159.57 41.407-7.3115q2.8432-88.059 1.0144-120.89-2.4028-41.96-10.943-52.206-7.3639-10.24-19.125-12.582-12.336-3.4583-52.112-3.877l-1.7142-43.994-60.925 7.8585z"/> </g> <g fill="#2a7885"> <path d="m227 1023.7 21.853 0.08934q-0.32532 80.318-0.65052 160.63-10.926-0.0442-21.853-0.0879 0.32507-80.318 0.65026-160.64z"/> <path d="m225.23 1170.1 74.141 0.3 74.141 0.3008q-0.07067 17.507-0.14173 35.014-74.141-0.3001-148.28-0.5999 0.07092-17.507 0.14184-35.015z"/> <path d="m232.74 1178.7 6.287 0.0254 6.2869 0.0256q-0.32691 80.762-0.65394 161.52-6.287-0.0249-12.574-0.0498 0.32691-80.762 0.65381-161.52z"/> <path d="m338.97 1193.6 6.2867 0.0261 6.2869 0.0257q-0.29762 73.483-0.59523 146.97-6.2869-0.0252-12.574-0.0503 0.29773-73.483 0.59534-146.97z"/> </g> <g fill="#c9497b" fill-opacity=".99608"> <path d="m451.44 1218.4v2e-4l-3.6e-4 -5e-4 3.6e-4 3e-4z"/> </g> <g fill="#026970"> <path d="m434.34 1112.8 225.36 0.9128q-0.02784 6.9373-0.05604 13.874-112.68-0.4553-225.36-0.9116 0.02796-6.9372 0.05616-13.875z"/> </g> <g fill="#1b0202"> <path d="m449.4 1099.3 113.44 0.4604q-0.02771 6.8584-0.05555 13.717-56.718-0.2293-113.44-0.4585 0.02759-6.8589 0.05554-13.718z"/> <path d="m568.37 992.19 10.285 1.534q-8.1966 54.971-16.393 109.94-5.1421-0.7661-10.285-1.5322 8.1968-54.973 16.394-109.94z"/> </g> <g fill-opacity=".99608"> <path d="m467.73 1104v7e-4 -7e-4 7e-4z"/> </g> <g fill="#5396be" fill-opacity=".99608"> <path d="m344.57 919.4v2.4e-4 4.9e-4 -4.9e-4 -2.4e-4 2.4e-4 4.9e-4q0-4.9e-4 0-7.3e-4z"/> </g> <g fill-opacity=".99608"> <path d="m411.01 1322.2 2.5642 0.0305q11.567 0.1279 16.751 0.6831 6.698 0.6848 9.6174 2.0276 1.4067 0.6199 2.3567 1.4182 0.69825 0.3123 2.0287 2.7156 1.1334 2.4805 0.6134 7.9436l-63.074 0.5857 4.6145-16.313 24.528 0.9087z"/> </g> <g fill="#fff"> <path d="m539.81 1080.3-30.971-0.0102q-0.00575 16.264-0.01172 32.528 15.485 0.0063 30.97 0.0127 0.00595-16.265 0.01205-32.53z"/> <path d="m532.52 1084.5v2e-4l-30.722-0.0114c-0.95436 0-1.7279 0.7729-1.7283 1.7268v7e-4l-0.00734 20.204c-3.6e-4 0.9541 0.77271 1.7278 1.7268 1.7283v5e-4l30.723 0.011c0.4584 5e-4 0.8981-0.1817 1.2218-0.5054 0.3242-0.3235 0.5062-0.7629 0.50635-1.2209v7e-4l0.00745-20.206c2.4e-4 -0.4582-0.1815-0.8974-0.5055-1.2219-0.324-0.324-0.7632-0.5061-1.2214-0.5061v2e-4m-0.00122 3.4546-1.7266-1.7282-0.0076 20.205 1.7282-1.7271-30.723-0.0114 1.7272 1.728 0.0072-20.205-1.728 1.7268 30.723 0.0112z"/> </g> <g fill="#ffc8a6" fill-opacity=".99608"> <path d="m426.88 1076.2v1e-3 -1e-3 1e-3z"/> </g> <g fill="#026970"> <path d="m635.69 1115.9 6.8005 4e-4 6.8006 0.0025q0 112.78-1.2e-4 225.57-6.8005 5e-4 -13.601 8e-4 0-112.79 0-225.57z"/> <path d="m443.44 1116.4 13.601 3e-4v225.57l-13.601 7e-4v-225.57z"/> </g> <g fill="#feba9b"> <path d="m426.11 1089.8 29.048-4.2099 11.107 8.9053-40.736 6.0793-18.505-8.095 19.086-2.6797z"/> </g> <g fill="#0f2d47"> <path d="m324.45 1031.4 23.611 7.7512 75.478 73.34 18.928-22.531c-37.469-44.922-61.616-72.544-72.355-82.953-9.1554-8.8748-14.326-13.369-15.235-14.029-5.8508-4.2503-10.397-7.0369-13.988-8.0945-4.7472-1.3987-9.5332-0.62207-14.456 2.6482l-1.9844 43.868z"/> </g> <g fill="#feba9b" fill-opacity=".99608"> <path d="m466.18 1094.4-13.258 11.735q-12.665 0.3481-25.33 0.6961 3.7219-4.0789 7.4441-8.1583l31.144-4.2729z"/> </g> <g fill-opacity=".99608"> <path d="m381.89 1024.5v4e-4 8e-4 -0.0012z"/> </g> <g fill="#7d8b96" fill-opacity=".99608"> <path d="m301.28 1056.2-2.6e-4 1e-3 -1e-4 5e-4 3.6e-4 -0.0015z"/> </g> <g fill="#9b3005"> <path d="m321.31 968.32-0.01465-0.1355q-0.19141-14.969-0.58875-17.354-0.2611-2.6946-0.75598-4.8288-2.1047-7.6406-2.4336-10.347-0.7484-5.6484-0.67492-9.011 0.15832-7.3044 1.0272-10.31 0.4519-1.993 1.1542-3.7893l0.77452-1.7221q0.84877-1.6516 1.9628-3.0115 2.2506-2.7148 5.2836-4.3291 2.1736-1.4932 8.19-2.4504 4.1107-0.43236 8.8815 0.48974 5.3873 1.033 13.914 4.239 3.0529 0.5264 4.5182 0.5315 3.7114 0.76076 6.4365-4.9133 2.623 5.3547 2.7018 8.0774 0.63428 4.3325-3.8087 14.418l-18.482 26.035-28.085 18.411z"/> </g> <g fill="#ffba9b" fill-opacity=".99608"> <path d="m318.49 974.27 6.3e-4 0.00122 2.4855-10.771 0.13562-4.1565q4.5773 0.1699 7.2804-1.6348 2.4595-1.7959 3.95-5.4946 1.1189-3.2071 1.1333-4.6997 0.0802-0.96287 0.06287-1.9182-0.3435-6.0972-0.14503-6.4119 0.02796-1.5537 1.1987-3.6094 3.4137-4.2256 6.1794-2.6929 0.7832 0.28416 1.8504 2.0701 0.4574 0.53834 2.443 6.0942 0.56165 1.3225 0.95032 0.97635 0.54895-0.82816 0.75134-1.8877 1.6451-7.6629 2.4125-10.381 1.5094-4.9541 2.0046-5.7122 1.907-4.8643 7.357-7.5408 8.4487-2.884 12.25 0.85525 2.7445 9.8186 2.6605 12.875 0.17627 3.3877-2.3833 6.4563 6.0903 10.756 5.8646 13.093 0.35792 2.8779-5.4662 2.55 0.66198 4.284 0.224 5.3821-0.30042 1.2834-2.4393 1.7668 1.4951 0.37255 1.0011 2.2085-0.50879 1.6038-2.6069 5.2605 0.07092 4.4612-0.75708 6.4231-0.97632 1.815-1.9404 2.0454-1.4738 0.91725-7.3529 0.61035l-6.4635-2.7412-4.422 4.5686-28.219-3.5855z"/> </g> <g fill-opacity=".99608"> <path d="m369.64 975.21 4.8e-4 -5e-4 -3.6e-4 5e-4 3.6e-4 -5e-4z"/> </g> <g fill="#0f2d47"> <path d="m320.58 1134.7v7e-4l-1.7556 2.6582c-9.3606 14.391-16.527 22.084-21.258 23.802-5.4913 1.9939-12.07 1.8652-20.013-1.0945-0.29834-2.0698-0.5752-4.1457-0.8667-6.2258-1.5996-11.401-1.8087-21.402-0.84838-30.038 0.1798-1.6182 0.52624-5.3574 1.8741-11.069 4.8691-20.631 7.4558-31.234 7.5709-31.92 0.32812-1.9536 1.1482-5.8313 2.0054-11.721 1.1013-7.5684 1.5868-22.067 2.3294-43.461 0.24122-6.9541 1.0242-10.953 1.1898-12.112 0.52417-3.6658 1.7369-8.1086 3.6504-13.416 0.45616-1.2646 1.965-4.418 5.1312-9.1904 3.1345-4.7246 8.5497-10.213 16.007-16.625l4.7572-10.202 30.645 11.381-1.5164 9.1833c9.9141 19.012 14.947 33.183 15.982 42.428 1.136 10.151 1.7935 20.532 1.0935 31.256 0.27454 0.2651-5.9161 14.544-9.0963 48.312-0.99866 10.604 3.2258 20.763 3.1538 25.006-0.15869 9.3518 0.49671 16.093 2.0099 20.224-7.7716 2.4743-13.929 2.3684-18.78 0.3862-4.5037-1.8403-12.349-7.4548-23.265-17.564v7e-4z"/> </g> <g fill-opacity=".99608"> <path d="m361.51 933.11 0.33618-0.11205q2.2041-0.78175 3.5491-0.7339 0.298 0.0144 0.58436 0.0659 0.14894 0.0076 0.83777 0.2251 0.68347 0.23366 1.8486 0.8699-2.0027-0.30665-3.2139-0.3496-1.1741-0.06203-3.9421 0.03465z"/> <path d="m361.92 938.87-9.8e-4 7.3e-4v5e-4l9.8e-4 -0.00123z"/> </g> <g fill="#fff" fill-opacity=".99608"> <path d="m362.54 935.7-3.8e-4 1e-3 4.0001-1.1528q0.3335 0.74634 0.30799 1.1992 0.00952 0.438-0.35718 1.4729l-3.9506-1.5203z"/> </g> <g fill-opacity=".99608"> <path d="m366.52 934.52-1.1294 1.2095 1.0192 1.4197q0.30542-0.52664 0.41675-0.81154 0.10292-0.2854 0.10535-0.33934 0.02357-0.11206 0.02893-0.22216 0.0039-0.1094-0.01062-0.21656 0.00206-0.05469-0.07801-0.31738-0.08776-0.26246-0.35217-0.72216z"/> <path d="m379.76 1042.5v7e-4 5e-4 -0.0012z"/> </g> <g fill="#feba9b"> <path d="m424.34 1098.2 29.048-4.2102 11.107 8.9055-40.736 6.0784-18.505-8.094 19.086-2.6797z"/> </g> <g fill="#0f2d47"> <path d="m322.68 1039.7 23.611 7.7515 75.478 73.34 18.929-22.531c-37.469-44.922-61.616-72.544-72.355-82.953-9.1553-8.8745-14.326-13.368-15.234-14.029-5.8509-4.2505-10.397-7.0366-13.988-8.0947-4.7472-1.3987-9.5332-0.6216-14.456 2.6479l-1.9841 43.868z"/> </g> <g fill="#feba9b" fill-opacity=".99608"> <path d="m464.41 1102.8-13.258 11.735q-12.665 0.3479-25.33 0.696 3.7217-4.0786 7.4438-8.1577l31.144-4.2729z"/> </g> <g fill="#0f2d47"> <path d="m349.35 983.75v1e-3l-2.1007 6.3276q3.4934 2.0769 6.9868 4.1543l-4.8861-10.483z"/> <path d="m351.53 991.73v7e-4l0.98754 3.3936 3.766 2.7073q-1.4216-2.646-2.8431-5.292l-1.9104-0.80954z"/> </g> <g fill-opacity=".99608"> <path d="m458.37 1165.9-1.2e-4 5e-4v-5e-4l1.2e-4 0.0025z"/> </g> <g fill="#fff" fill-opacity=".99608"> <path d="m587.78 1108 34.623 7e-4 34.623-7e-4q0 0.4048 0 0.8098-34.623 0-69.246 2e-4 0-0.4052 0-0.81z"/> </g> <g fill="#d9e2e7"> <path d="m588 1108.7 34.623 0.0024 34.623-0.0017v0.8091l-69.246 5e-4v-0.8103z"/> </g> <g fill="#fff" fill-opacity=".99608"> <path d="m587.86 1109.5 34.623 5e-4 34.623 0.0024v0.8072l-69.246 0.0024v-0.8125z"/> </g> <g fill="#d9e2e7"> <path d="m587.86 1109.9 34.623 2e-4 34.623-2e-4v0.8095l-69.246 0.0025v-0.812z"/> </g> <g fill="#fff" fill-opacity=".99608"> <path d="m587.86 1110.7 34.623 2e-4 34.623-2e-4v0.8093l-69.246 3e-4v-0.8096z"/> </g> <g fill="#d9e2e7"> <path d="m588.08 1111.4 34.623 7e-4 34.623-7e-4v0.8096l-69.246 0.0026v-0.8122z"/> </g> <g fill="#fff" fill-opacity=".99608"> <path d="m588.01 1112 34.623 0.0025 34.623-0.0022v0.8098l-69.246 2e-4v-0.8103z"/> </g> <g fill="#d9e2e7"> <path d="m587.82 1112.7 34.623 0.0024 34.623-2e-3v0.8091l-69.246 5e-4v-0.81z"/> </g> <g fill="#d9f1e4"> <path d="m799.57 1117.4c5.8155 26.503 4.8974 39.642 4.8974 39.642-0.95813 13.714-5.0159 22.138-10.912 25.381-7.6878 8.4312-97.67 10.275-97.67 10.275l1.6672 144.78-41.407-7.3123c-1.8955-58.706-2.2524-99.004-1.0142-120.89l1.7786-53.089c5.1567-6.6421 20.517-9.8272 28.289-11.698 8.3041-1.9983 17.158-4.4658 43.674-4.7449l5.1441-19.824z"/> </g> <g fill="#2a7885"> <path d="m855 1026.9-21.854 0.0896q0.3253 80.317 0.6504 160.64 10.927-0.0442 21.853-0.0884-0.32497-80.318-0.65016-160.64z"/> <path d="m856.77 1173.4-148.28 0.6008q0.0708 17.507 0.1416 35.013 74.141-0.2994 148.28-0.5992-0.07094-17.507-0.142-35.015z"/> <path d="m849.26 1181.9-6.2869 0.0257-6.2869 0.0254q0.32691 80.762 0.65396 161.52 6.2868-0.025 12.574-0.0501-0.327-80.762-0.6539-161.52z"/> <path d="m743.03 1196.9-6.287 0.0258-6.2867 0.0257q0.29763 73.483 0.59533 146.97 6.2869-0.0251 12.574-0.0505-0.2977-73.484-0.5952-146.97z"/> </g> <g fill="#2a4a59"> <path d="m671.73 1326.7-2.5642 0.0305c-7.7117 0.085-13.294 0.3226-16.752 0.6832-4.4645 0.4658-7.6665 1.142-9.6173 2.0275-0.93334 0.4236-1.7235 0.8858-2.3567 1.4187-0.46543 0.208-1.204 1.0801-2.0289 2.7151-0.819 1.6233-0.9601 4.3013-0.6133 7.9436l63.074 0.5855-1.0418-15.342-28.101-0.0618z"/> </g> <g fill="#fff"> <path d="m757.41 1405.7-1e-4 5e-4v7e-4l1e-4 -0.0012z"/> <path d="m597.5 835.18-0.8833 9.6494q-6.2783 29.162-36.741 46.646-30.673 17.47-72.24 14.168-39.67-4.6152-63.454-27.008-7.6207-7.2386-12.554-15.774l-4.1466-8.7756q-3.417-9.0578-3.4554-18.905 1.0374-30.218 28.334-50.284 27.296-20.065 68.403-20.828 41.107 0.7627 68.403 20.828 27.296 20.066 28.334 50.284z"/> <path d="m453.09 849.39-48.201 47.914q27.21-4.511 54.421-9.0229l-6.2196-38.891z"/> <path d="m593.06 807.95v7.6e-4q10.054 14.463 10.676 32.575l-0.8833 9.6496q-6.2783 29.161-36.74 46.646-25.798 14.693-59.3 14.693-6.332 0-12.939-0.5249-10.07-1.1719-19.116-3.4888l-0.00501 9.6e-4q3.8779 5.4451 9.1248 10.798 10.571 9.9526 24.279 16.394 6.8544 3.2204 14.493 5.563 19.645 5.0525 24.612 5.0525 0.0352 0 0.06937 0 6.6074 0.52441 12.94 0.52441 11.372 0 21.857-1.6929 19.932-4.1919 23.273-6.2612 7.3542-2.8567 14.171-6.7388 13.539-7.7705 22.301-17.848 4.3807-5.0388 7.5675-10.654 6.9215-14.543 6.8725-18.144l0.8833-9.6497q-0.46103-13.43-6.1091-24.855-2.824-5.7122-6.9447-10.923-1.2501-2.9189-15.28-14.505-12.132-8.9182-26.991-14.023-1.8047-1.0276-8.8029-2.5872z"/> <path d="m631.18 887.27 48.202 47.914-54.421-9.0229 6.2192-38.891z"/> </g> <g fill="#535d66"> <path d="m521.06 750.96v0.00145-0.00145"/> </g> <g fill="#2a4a59"> <path d="m684.35 1167.9-0.37197 1.7666q-1.614 5.2695-6.2102 7.9175-4.6241 2.6411-10.186 1.2331-5.2704-1.6145-7.9178-6.2094-0.8467-1.4844-1.2943-3.1573l-0.3345-1.7019q-0.228-1.7397 0.02405-3.56 0.92935-5.5674 5.1626-8.7522 4.2324-3.1863 9.8382-2.5384 5.5665 0.9297 8.7518 5.1631 3.1854 4.2334 2.5379 9.8389"/> <path d="m782.46 1014.4-0.15344 2.2805q-1.0907 6.8918-6.383 11.024-5.3287 4.1289-12.55 3.3486-6.8919-1.0908-11.024-6.3831-1.3239-1.7106-2.1811-3.728l-0.72034-2.0737q-0.5936-2.1409-0.60034-4.468 0.1803-7.1416 4.9223-11.884 4.7421-4.7422 11.884-4.9223 7.1414 0.18018 11.884 4.9223 4.742 4.742 4.9222 11.884"/> <path d="m787.79 1151.3-0.13364 1.9871q-0.95047 6.0049-5.5616 9.6052-4.6433 3.5977-10.935 2.9177-6.005-0.9502-9.6053-5.5617-1.1536-1.4908-1.9005-3.2486l-0.6277-1.8069q-0.5172-1.8654-0.5231-3.8928 0.15713-6.2226 4.2892-10.354 4.1318-4.1318 10.354-4.289 6.2226 0.1572 10.355 4.289 4.132 4.1319 4.2889 10.354"/> <path d="m691.14 1054.9 34.253-26.217 34.253-26.216q8.586 11.218 17.172 22.435-34.253 26.217-68.506 52.435-8.5864-11.218-17.173-22.436"/> <path d="m651.64 1008.6 20.01-17.573q25.872 29.461 51.745 58.922-10.004 8.7868-20.01 17.573-25.873-29.461-51.746-58.923"/> </g> <g fill="#d9f1e4"> <path d="m718.75 1058.9-0.0696 1.0354q-0.49525 3.1289-2.898 5.0046-2.4192 1.8745-5.6976 1.5201-3.1288-0.4949-5.0049-2.8978-0.60105-0.7763-0.9901-1.6923l-0.327-0.9417q-0.26966-0.9719-0.2727-2.0283 0.0819-3.2424 2.2348-5.3953 2.153-2.1526 5.3952-2.2346 3.2422 0.082 5.3951 2.2346 2.153 2.1529 2.2348 5.3953"/> <path d="m672.7 1006.5-0.0049 0.76975q-0.2257 2.3379-1.9197 3.8348-1.7063 1.4961-4.1489 1.3814-2.3381-0.22584-3.8348-1.9194-0.47976-0.54809-0.80896-1.2085l-0.28455-0.68212q-0.24328-0.70728-0.29295-1.489-0.08534-2.4035 1.4114-4.0937 1.4966-1.6905 3.8927-1.897 2.4034-0.08545 4.0939 1.4111 1.6906 1.4966 1.8969 3.8928"/> </g> <g fill="#535d66"> <path d="m682.42 1313.6-0.04165 0.6193q-0.29639 1.8726-1.7344 2.9954-1.4478 1.1216-3.4097 0.9097-1.8726-0.2967-2.9951-1.7344-1.1218-1.4478-0.9099-3.4099 0.2965-1.8723 1.7344-2.9949 1.4478-1.1216 3.4098-0.9099 1.8725 0.2964 2.995 1.7344 0.35976 0.4646 0.59266 1.0127l0.19567 0.5637q0.16123 0.5815 0.16323 1.2139"/> </g> <g fill="#2a4a59"> <path d="m712.77 913.6 18.075-0.73559 0.984 24.185-18.075 0.73535-0.98401-24.185"/> </g> <g fill="#24fee3"> <path d="m713.06 922.56 12.902-0.3039q0.1023 4.3188 0.20506 8.6374-6.4508 0.1543-12.902 0.30886-0.10263-4.3216-0.20508-8.6424"/> </g> <g fill="#2a4a59"> <path d="m734.99 1142.7-0.02844 0.4441q-0.2029 1.3425-1.1869 2.147-0.9907 0.8039-2.3332 0.6521-1.2812-0.2122-2.0493-1.2429-0.24624-0.3333-0.40554-0.7261l-0.13377-0.4038q-0.11047-0.417-0.11169-0.8704 0.03346-1.3909 0.91506-2.3144 0.8817-0.9234 2.2093-0.9585 1.3277 0.0351 2.2094 0.9585 0.8817 0.9235 0.91514 2.3144"/> <path d="m736.07 1094.4-0.1399 0.3581q-0.52354 1.0506-1.5818 1.4461-1.0637 0.3926-2.1828-0.0977-1.0506-0.5234-1.4458-1.5815-0.393-1.064 0.09763-2.1831 0.52332-1.0506 1.5814-1.4458 1.0638-0.3931 2.1828 0.0976 1.0507 0.5237 1.4459 1.5816 0.12586 0.3415 0.16136 0.7085l0.0109 0.3691q-0.0132 0.3735-0.1298 0.7471"/> <path d="m794.19 1092.8-0.13989 0.3582q-0.23277 0.467-0.57107 0.8044-0.0681 0.1045-0.5669 0.4334-0.2086 0.1201-0.4438 0.208-0.23635 0.0874-0.4756 0.1309-0.6001 0.071-0.7234 0.0327-0.48657-0.0435-0.984-0.2612-0.2334-0.1163-0.4346-0.2591-0.1207-0.0547-0.5304-0.4873-0.3049-0.3647-0.48056-0.8352-0.34934-0.9458-7.4e-4 -1.9348 0.18885-0.509 0.5066-0.8757 0.41284-0.4339 0.5271-0.4817 0.19543-0.1365 0.4175-0.2408 0.10484-0.0783 0.70396-0.227 0.23914-0.0435 0.48094-0.0437 0.48366 0 0.9784 0.1745 0.50904 0.1885 0.8756 0.5064 0.18496 0.1558 0.3374 0.3381 0.0967 0.075 0.38503 0.6067 0.21094 0.4495 0.2572 0.937 0.05933 0.5122-0.11877 1.1162"/> </g> </g> </svg>